<svg id="visual" viewBox="0 0 900 600" width="900" height="600" xmlns="http://www.w3.org/2000/svg" xmlns:xlink="http://www.w3.org/1999/xlink" version="1.1"><path d="M0 346L16.7 342.8C33.3 339.7 66.7 333.3 100 332.2C133.3 331 166.7 335 200 339.8C233.3 344.7 266.7 350.3 300 350.5C333.3 350.7 366.7 345.3 400 341.2C433.3 337 466.7 334 500 332.2C533.3 330.3 566.7 329.7 600 331.2C633.3 332.7 666.7 336.3 700 338.3C733.3 340.3 766.7 340.7 800 339.7C833.3 338.7 866.7 336.3 883.3 335.2L900 334L900 601L883.3 601C866.7 601 833.3 601 800 601C766.7 601 733.3 601 700 601C666.7 601 633.3 601 600 601C566.7 601 533.3 601 500 601C466.7 601 433.3 601 400 601C366.7 601 333.3 601 300 601C266.7 601 233.3 601 200 601C166.7 601 133.3 601 100 601C66.7 601 33.3 601 16.7 601L0 601Z" fill="#fa7268"/><path d="M0 402L16.7 398.8C33.3 395.7 66.7 389.3 100 383.8C133.3 378.3 166.7 373.7 200 374.3C233.3 375 266.7 381 300 383C333.3 385 366.7 383 400 383.3C433.3 383.7 466.7 386.3 500 386.7C533.3 387 566.7 385 600 387.3C633.3 389.7 666.7 396.3 700 399.7C733.3 403 766.7 403 800 396.8C833.3 390.7 866.7 378.3 883.3 372.2L900 366L900 601L883.3 601C866.7 601 833.3 601 800 601C766.7 601 733.3 601 700 601C666.7 601 633.3 601 600 601C566.7 601 533.3 601 500 601C466.7 601 433.3 601 400 601C366.7 601 333.3 601 300 601C266.7 601 233.3 601 200 601C166.7 601 133.3 601 100 601C66.7 601 33.3 601 16.7 601L0 601Z" fill="#f16367"/><path d="M0 411L16.7 411C33.3 411 66.7 411 100 414.8C133.3 418.7 166.7 426.3 200 426.5C233.3 426.7 266.7 419.3 300 420C333.3 420.7 366.7 429.3 400 428.7C433.3 428 466.7 418 500 412.7C533.3 407.3 566.7 406.7 600 407.5C633.3 408.3 666.7 410.7 700 414.3C733.3 418 766.7 423 800 425.3C833.3 427.7 866.7 427.3 883.3 427.2L900 427L900 601L883.3 601C866.7 601 833.3 601 800 601C766.7 601 733.3 601 700 601C666.7 601 633.3 601 600 601C566.7 601 533.3 601 500 601C466.7 601 433.3 601 400 601C366.7 601 333.3 601 300 601C266.7 601 233.3 601 200 601C166.7 601 133.3 601 100 601C66.7 601 33.3 601 16.7 601L0 601Z" fill="#e85467"/><path d="M0 452L16.7 454.3C33.3 456.7 66.7 461.3 100 463.7C133.3 466 166.7 466 200 468.3C233.3 470.7 266.7 475.3 300 479C333.3 482.7 366.7 485.3 400 481.3C433.3 477.3 466.7 466.7 500 463.5C533.3 460.3 566.7 464.7 600 470.3C633.3 476 666.7 483 700 485.8C733.3 488.7 766.7 487.3 800 481.2C833.3 475 866.7 464 883.3 458.5L900 453L900 601L883.3 601C866.7 601 833.3 601 800 601C766.7 601 733.3 601 700 601C666.7 601 633.3 601 600 601C566.7 601 533.3 601 500 601C466.7 601 433.3 601 400 601C366.7 601 333.3 601 300 601C266.7 601 233.3 601 200 601C166.7 601 133.3 601 100 601C66.7 601 33.3 601 16.7 601L0 601Z" fill="#de4467"/><path d="M0 513L16.7 516.3C33.3 519.7 66.7 526.3 100 524C133.3 521.7 166.7 510.3 200 505.5C233.3 500.7 266.7 502.3 300 506.3C333.3 510.3 366.7 516.7 400 520C433.3 523.3 466.7 523.7 500 524.5C533.3 525.3 566.7 526.7 600 523.3C633.3 520 666.7 512 700 511.8C733.3 511.7 766.7 519.3 800 519.3C833.3 519.3 866.7 511.7 883.3 507.8L900 504L900 601L883.3 601C866.7 601 833.3 601 800 601C766.7 601 733.3 601 700 601C666.7 601 633.3 601 600 601C566.7 601 533.3 601 500 601C466.7 601 433.3 601 400 601C366.7 601 333.3 601 300 601C266.7 601 233.3 601 200 601C166.7 601 133.3 601 100 601C66.7 601 33.3 601 16.7 601L0 601Z" fill="#d23467"/><path d="M0 562L16.7 560.8C33.3 559.7 66.7 557.3 100 559.5C133.3 561.7 166.7 568.3 200 569.7C233.3 571 266.7 567 300 567.3C333.3 567.7 366.7 572.3 400 573C433.3 573.7 466.7 570.3 500 567.8C533.3 565.3 566.7 563.7 600 562.5C633.3 561.3 666.7 560.7 700 562.3C733.3 564 766.7 568 800 564.2C833.3 560.3 866.7 548.7 883.3 542.8L900 537L900 601L883.3 601C866.7 601 833.3 601 800 601C766.7 601 733.3 601 700 601C666.7 601 633.3 601 600 601C566.7 601 533.3 601 500 601C466.7 601 433.3 601 400 601C366.7 601 333.3 601 300 601C266.7 601 233.3 601 200 601C166.7 601 133.3 601 100 601C66.7 601 33.3 601 16.7 601L0 601Z" fill="#c62368"/></svg>